<svg width="640" height="480" xmlns="http://www.w3.org/2000/svg" xmlns:svg="http://www.w3.org/2000/svg">
 <!-- Created with SVG-edit - http://svg-edit.googlecode.com/ -->
 <g>
  <title>Layer 1</title>
  <circle stroke="#000000" id="svg_5" r="117.015442" cy="142.000007" cx="125.499999" stroke-linecap="null" stroke-linejoin="null" stroke-dasharray="null" stroke-width="3" fill="#ffffff"/>
  <path stroke="#000000" id="svg_1" d="m98.932097,211.784335c-8.165315,-2.166088 -12.895713,-11.071345 -12.337735,-19.149901c-0.209033,-10.552106 0.764535,-21.655611 -4.281388,-31.35815c-2.876111,-7.244304 -7.775598,-13.640387 -9.820225,-21.189737c-2.544329,-11.712309 0.598459,-24.987025 10.067844,-32.849951c10.679235,-9.150742 27.733161,-10.343438 39.48888,-2.565863c8.291395,5.711233 14.273824,15.131023 14.051573,25.410229c0.972898,7.680846 -2.058501,14.905344 -5.624608,21.508283c-2.554969,5.316494 -5.5388,10.518943 -7.857829,15.894717c-0.611354,11.022327 -0.260731,22.145754 -1.918963,33.073273c-2.762306,8.467575 -13.172383,14.224686 -21.76755,11.227096l0,0.000005zm21.565812,-19.708106c-4.845885,-2.612077 -11.809394,-0.913831 -17.442027,-1.476171c-4.601116,0.920294 -12.776808,-1.887598 -15.222855,2.324356c5.593954,2.188264 12.168023,0.547907 18.123318,0.909946c4.765132,-0.457659 10.247522,0.434 14.541564,-1.758135l0,0.000005zm-0.362921,-4.915171c0.713151,-6.636217 -9.781001,-3.249876 -14.044117,-4.23777c-5.642515,1.142092 -14.622067,-2.444684 -18.170761,2.654142c2.102849,5.123932 11.480993,1.520329 16.405627,2.657196c5.251625,-0.186094 10.699928,0.188224 15.809247,-1.073568l0.000005,0zm0.065336,-11.627231c1.38536,-12.927522 9.289593,-23.691322 13.866495,-35.516719c3.763086,-14.158397 -3.689595,-30.333711 -17.182594,-36.276805c-13.430208,-6.656153 -31.323593,-1.627832 -38.913447,11.414756c-7.312879,10.773516 -5.917268,25.411716 1.230155,35.888871c5.099866,9.156485 9.168774,19.446451 8.505963,30.102502c10.586128,0 21.17226,0 31.758397,0c0.245023,-1.870841 0.489963,-3.741806 0.735032,-5.612605zm-23.435922,-18.314795c-4.194268,-7.292819 -8.499994,-14.641836 -11.420674,-22.545464c2.625877,-3.399079 3.389761,-7.185293 4.205481,-11.179043c7.370057,-1.447661 -0.938123,8.398802 6.020257,8.620692c6.176622,2.687397 3.46703,-13.040103 8.598687,-7.371082c-3.683682,6.221709 7.23573,12.411133 7.63648,3.51069c-0.529353,-6.720255 6.599982,-5.461156 3.820402,0.635498c0.229416,3.136228 5.33563,4.035344 5.423055,6.557774c-3.675966,7.973482 -6.871168,16.205483 -11.223931,23.838733c-0.979759,-2.955386 3.853472,-10.362565 5.397881,-14.711724c2.98014,-3.759478 5.541009,-13.890958 -2.228033,-12.509932c-4.506729,7.029339 -10.569241,-4.430924 -14.981958,2.305645c-3.745936,1.11738 -9.637476,-6.487416 -10.724132,0.824738c2.821281,8.684966 8.691739,16.086762 11.763263,24.682076c-1.042249,-0.6145 -1.635732,-1.692586 -2.286777,-2.658605l0,0.000005zm-5.887113,-31.829337c-2.039564,-0.995416 0.859657,5.291828 -0.000042,0l0.000042,0zm12.190439,0.742613c-2.647568,-4.480709 -1.227632,5.436504 0,0zm11.816,0c-2.647568,-4.480709 -1.227651,5.436504 0,0zm-55.008992,-33.108584c-4.679523,-4.749276 -9.852159,-9.205688 -13.921806,-14.440695c10.166865,8.415896 19.472434,17.893994 28.634736,27.395831c2.432996,3.343278 -4.24452,-3.122076 -5.48731,-4.205813c-3.109598,-2.879886 -6.178465,-5.803546 -9.225624,-8.749323l0.000005,0zm72.261233,13.578673c7.909537,-9.855263 15.289314,-20.187114 23.816959,-29.517404c-1.427938,4.017155 -6.024582,8.823973 -8.914779,12.961276c-4.82661,6.004822 -9.338223,12.353817 -14.857573,17.737727c-0.688873,0.728138 -1.71753,-0.996511 -0.044532,-1.181598l-0.000069,0l-0.000005,0zm-17.132241,-9.349551c2.732812,-7.816633 6.696804,-15.257145 11.119195,-22.252855c-0.102782,3.880869 -4.793055,11.236409 -7.047492,16.048536c-1.27532,1.936445 -2.351018,5.024671 -4.071703,6.204319zm-34.996292,-10.024541c-1.903657,-2.776748 -7.63417,-9.24232 -6.564196,-10.124052c5.524954,6.125839 11.144263,12.448657 15.11312,19.692989c-3.379883,-2.59222 -5.811848,-6.336244 -8.548929,-9.568937l0.000005,0zm21.878647,-2.18533c-0.385273,-2.607743 0.810731,-15.056534 1.475164,-6.603549c0.002361,5.296189 0.555179,11.258401 -0.918992,16.078926c-0.631275,-3.099217 -0.478117,-6.325692 -0.556172,-9.475377z" stroke-width="5" fill="#FF0000"/>
  <text stroke="#000000" transform="matrix(2.565957546234131,0,0,2.5905325412750244,-272.96597477793694,-243.67455573752522) " xml:space="preserve" text-anchor="middle" font-family="Sans-serif" font-size="24" id="svg_4" y="159.58063" x="181.205639" stroke-linecap="null" stroke-linejoin="null" stroke-dasharray="null" stroke-width="0" fill="#000000">BP</text>
 </g>
</svg>
