<svg width="640" height="480" xmlns="http://www.w3.org/2000/svg" xmlns:svg="http://www.w3.org/2000/svg">
 <!-- Created with SVG-edit - http://svg-edit.googlecode.com/ -->
 <g>
  <title>Layer 1</title>
  <g stroke="null" id="svg_2">
   <circle stroke="#000000" fill="#ffffff" stroke-width="3" stroke-dasharray="null" stroke-linejoin="null" stroke-linecap="null" cx="324.99999" cy="238.50001" r="220.51543" id="svg_5"/>
   <path stroke="#000000" fill="#FF0000" stroke-width="5" d="m262.15114,385.40792c-16.00295,-4.28373 -25.27391,-21.89516 -24.18034,-37.87168c-0.40967,-20.86829 1.4984,-42.82708 -8.39096,-62.01524c-5.6368,-14.32664 -15.23913,-26.97581 -19.24634,-41.90573c-4.98655,-23.16278 1.1729,-49.41544 19.73164,-64.96549c20.9299,-18.09692 54.35334,-20.45564 77.393,-5.07438c16.25005,11.2948 27.97483,29.92378 27.53924,50.25238c1.90674,15.18998 -4.03441,29.47747 -11.02349,42.53573c-5.0074,10.51412 -10.85532,20.80271 -15.40031,31.43407c-1.19817,21.79824 -0.511,43.79642 -3.76091,65.40716c-5.41376,16.74584 -25.81615,28.13135 -42.66153,22.20318l0,0.00002l0,-0.00002zm42.26615,-38.9756c-9.49731,-5.16576 -23.14487,-1.80723 -34.18408,-2.91934c-9.01757,1.82001 -25.04086,-3.733 -29.83478,4.59674c10.9634,4.32762 23.84772,1.08357 35.5193,1.79956c9.33905,-0.90509 20.08381,0.8583 28.49956,-3.47697l0,0.00002l0,0zm-0.71128,-9.72045c1.39768,-13.12408 -19.16947,-6.4271 -27.52462,-8.3808c-11.05858,2.25865 -28.65733,-4.83473 -35.61229,5.24894c4.12131,10.13331 22.50123,3.00667 32.15287,5.25499c10.29248,-0.36804 20.97043,0.37223 30.98403,-2.12314l0.00002,0l0,0zm0.12804,-22.99452c2.71512,-25.56603 18.20639,-46.85299 27.17651,-70.23941c7.37514,-28.00027 -7.23113,-59.98927 -33.67561,-71.7426c-26.32144,-13.16349 -61.39013,-3.21927 -76.26523,22.57433c-14.33228,21.30618 -11.59707,50.25533 2.41093,70.97539c9.99507,18.10827 17.9696,38.45815 16.67058,59.53202c20.7474,0 41.49484,0 62.24226,0c0.48023,-3.69985 0.96028,-7.39995 1.44058,-11.09972l-0.00002,0zm-45.93131,-36.22015c-8.22022,-14.4226 -16.65886,-28.95632 -22.38301,-44.58688c5.14636,-6.72217 6.64348,-14.20994 8.24219,-22.10816c14.44435,-2.86298 -1.83859,16.60983 11.79892,17.04865c12.10536,5.3147 6.79492,-25.78869 16.85228,-14.57739c-7.21953,12.30433 14.18108,24.54481 14.96649,6.94291c-1.03746,-13.29028 12.93509,-10.80023 7.48748,1.25677c0.44963,6.20235 10.45713,7.98048 10.62848,12.96895c-7.20442,15.7687 -13.46659,32.04866 -21.99742,47.14451c-1.9202,-5.84471 7.55229,-20.49345 10.57913,-29.09454c5.84068,-7.43491 10.85965,-27.47137 -4.36665,-24.7402c-8.8326,13.90153 -20.71432,-8.76278 -29.36267,4.55975c-7.34155,2.20978 -18.88819,-12.8298 -21.01788,1.63104c5.52934,17.17576 17.03466,31.81388 23.05444,48.81234c-2.04267,-1.21526 -3.20582,-3.34732 -4.48179,-5.25776l0,0l0,0zm-11.53796,-62.94707c-3.99729,-1.96859 1.68482,10.46533 -0.00008,0l0.00008,0zm23.89166,1.46862c-5.18889,-8.86125 -2.40599,10.75146 0,0zm23.1578,0c-5.18889,-8.86125 -2.40603,10.75146 0,0zm-107.81037,-65.47699c-9.17126,-9.39236 -19.30894,-18.20555 -27.28491,-28.55854c19.92571,16.64365 38.1634,35.38793 56.12032,54.17919c4.76834,6.61182 -8.3187,-6.17436 -10.7544,-8.31759c-6.09441,-5.6954 -12.10899,-11.47735 -18.08102,-17.30306l0.00002,0l0,0zm141.62249,26.85379c15.50166,-19.49021 29.96503,-39.92293 46.6781,-58.37492c-2.79857,7.94451 -11.80738,17.45069 -17.47179,25.63279c-9.45952,11.87539 -18.30168,24.43145 -29.11888,35.07891c-1.35011,1.43998 -3.36613,-1.97074 -0.08729,-2.33678l-0.00014,0l0,0l0,0zm-33.57693,-18.49008c5.35595,-15.45853 13.12485,-30.17321 21.79215,-44.00823c-0.20144,7.67498 -9.39375,22.22161 -13.81215,31.73829c-2.49946,3.82959 -4.60769,9.93701 -7.98,12.26993zm-68.58812,-19.82497c-3.73092,-5.49142 -14.96197,-18.27802 -12.86497,-20.02178c10.82817,12.11473 21.84128,24.61901 29.61972,38.94572c-6.62412,-5.12649 -11.39046,-12.53082 -16.75478,-18.92393l0.00002,0zm42.87925,-4.3218c-0.75508,-5.1572 1.58892,-29.77647 2.89114,-13.05947c0.00463,10.47398 1.08808,22.2651 -1.8011,31.79837c-1.23723,-6.12913 -0.93705,-12.50996 -1.09004,-18.7389z" id="svg_1"/>
   <text stroke="#000000" fill="#000000" stroke-width="0" stroke-dasharray="null" stroke-linejoin="null" stroke-linecap="null" x="180.4262" y="157.65052" id="svg_4" font-size="24" font-family="Sans-serif" text-anchor="middle" xml:space="preserve" transform="matrix(5.028938578612838,0,0,5.123150124280671,-466.72007103023543,-515.3274363159991) ">BP</text>
  </g>
 </g>
</svg>
